UNKNOWN
version=1
nRows=27
nColumns=13
inDegrees=no
endheader
time	time	pelvis_tilt	hip_flexion_r	knee_angle_r	ankle_angle_r	pelvis_tilt	hip_flexion_r	knee_angle_r	ankle_angle_r	hip_flexion_l	knee_angle_l	ankle_angle_l
    264.00000000	      7.01000000	     -1.68527837	    -12.11971559	     -8.58916772	      3.02339229	     -1.68527837	    -12.11971559	     -8.58916772	      3.02339229	      3.42239807	    -62.60684599	    -12.58389010
    265.00000000	      7.02000000	     -1.53000897	    -13.37233132	     -7.70722226	      3.15350349	     -1.53000897	    -13.37233132	     -7.70722226	      3.15350349	      4.85729798	    -61.45650413	    -11.38246381
    266.00000000	      7.03000000	     -1.38967205	    -14.64207566	     -6.83667855	      3.24799547	     -1.38967205	    -14.64207566	     -6.83667855	      3.24799547	      6.09459496	    -59.91456174	    -10.05235318
    267.00000000	      7.04000000	     -1.28196310	    -15.83747657	     -6.05708461	      3.40235154	     -1.28196310	    -15.83747657	     -6.05708461	      3.40235154	      7.20003598	    -58.01459577	     -8.60754996
    268.00000000	      7.05000000	     -1.22635615	    -17.02313073	     -5.32572737	      3.54876944	     -1.22635615	    -17.02313073	     -5.32572737	      3.54876944	      8.12090157	    -55.74302746	     -7.22864350
    269.00000000	      7.06000000	     -1.21410881	    -18.24816158	     -4.61015002	      3.69179882	     -1.21410881	    -18.24816158	     -4.61015002	      3.69179882	      8.82814240	    -53.10636064	     -6.02778475
    270.00000000	      7.07000000	     -1.28113187	    -19.42793627	     -3.93778482	      3.88943730	     -1.28113187	    -19.42793627	     -3.93778482	      3.88943730	      9.41647549	    -50.15877465	     -4.95388141
    271.00000000	      7.08000000	     -1.47339251	    -20.55407557	     -3.26699152	      4.05969884	     -1.47339251	    -20.55407557	     -3.26699152	      4.05969884	      9.92200815	    -46.93614010	     -4.03729133
    272.00000000	      7.09000000	     -1.74227530	    -21.66838431	     -2.60482531	      4.26642870	     -1.74227530	    -21.66838431	     -2.60482531	      4.26642870	     10.28348762	    -43.41946404	     -3.18337640
    273.00000000	      7.10000000	     -2.02365664	    -22.86110996	     -1.94106809	      4.48006793	     -2.02365664	    -22.86110996	     -1.94106809	      4.48006793	     10.38731391	    -39.55717460	     -2.40502978
    274.00000000	      7.11000000	     -2.38773531	    -24.01906964	     -1.29622288	      4.71965024	     -2.38773531	    -24.01906964	     -1.29622288	      4.71965024	     10.37056822	    -35.43823424	     -1.56757334
    275.00000000	      7.12000000	     -2.81776947	    -25.15347662	     -0.69587545	      4.96147839	     -2.81776947	    -25.15347662	     -0.69587545	      4.96147839	     10.22497394	    -31.07961285	     -0.71152084
    276.00000000	      7.13000000	     -3.20620730	    -26.40129984	     -0.08580703	      5.26101033	     -3.20620730	    -26.40129984	     -0.08580703	      5.26101033	      9.83340405	    -26.46665417	      0.03589418
    277.00000000	      7.14000000	     -3.66308224	    -27.61314107	      0.43075444	      5.57409302	     -3.66308224	    -27.61314107	      0.43075444	      5.57409302	      9.35348649	    -21.73868636	      0.62832434
    278.00000000	      7.15000000	     -4.09461109	    -28.85516860	      0.90899894	      5.91387665	     -4.09461109	    -28.85516860	      0.90899894	      5.91387665	      8.73189548	    -16.93631108	      0.99621953
    279.00000000	      7.16000000	     -4.63383365	    -30.11475920	      1.20682413	      6.23639300	     -4.63383365	    -30.11475920	      1.20682413	      6.23639300	      7.89162910	    -12.16119495	      1.12642864
    280.00000000	      7.17000000	     -5.31820070	    -31.27327214	      1.28956007	      6.54749479	     -5.31820070	    -31.27327214	      1.28956007	      6.54749479	      6.94783283	     -7.58887963	      1.10333125
    281.00000000	      7.18000000	     -6.25792418	    -32.28786515	      1.00816652	      6.87157606	     -6.25792418	    -32.28786515	      1.00816652	      6.87157606	      5.85396906	     -3.36724226	      0.93315422
    282.00000000	      7.19000000	     -7.41626260	    -33.09496882	      0.32564830	      7.22095773	     -7.41626260	    -33.09496882	      0.32564830	      7.22095773	      4.70727470	      0.31433942	      0.61299459
    283.00000000	      7.20000000	     -7.09267304	    -34.46086838	      0.69019305	      7.51397534	     -7.09267304	    -34.46086838	      0.69019305	      7.51397534	      4.16347577	      3.51662981	      0.38936571
    284.00000000	      7.21000000	     -6.46658189	    -35.64695184	      0.91283992	      7.83369848	     -6.46658189	    -35.64695184	      0.91283992	      7.83369848	      3.90874720	      5.84312622	      0.20242302
    285.00000000	      7.22000000	     -6.93689765	    -36.17137044	     -0.11552865	      8.19820002	     -6.93689765	    -36.17137044	     -0.11552865	      8.19820002	      3.47934689	      6.90661118	      0.11006839
    286.00000000	      7.23000000	     -7.23078781	    -36.51658930	     -1.35677503	      8.53329738	     -7.23078781	    -36.51658930	     -1.35677503	      8.53329738	      3.32839703	      6.91223363	      0.30060482
    287.00000000	      7.24000000	     -7.44786112	    -36.67445946	     -2.95463626	      8.87976639	     -7.44786112	    -36.67445946	     -2.95463626	      8.87976639	      3.25025531	      6.00554665	      0.64661024
    288.00000000	      7.25000000	     -7.85724898	    -36.44933557	     -5.03207950	      9.17129624	     -7.85724898	    -36.44933557	     -5.03207950	      9.17129624	      3.27162424	      4.35853804	      0.99067553
    289.00000000	      7.26000000	     -8.45587816	    -35.93501782	     -7.50375489	      9.34799035	     -8.45587816	    -35.93501782	     -7.50375489	      9.34799035	      3.23433697	      2.31783093	      1.11652387
    290.00000000	      7.27000000	     -7.21922817	    -36.21195501	     -8.55748639	      9.17404980	     -7.21922817	    -36.21195501	     -8.55748639	      9.17404980	      3.86450417	      0.51433066	      0.96491799
